<svg xmlns="http://www.w3.org/2000/svg" aria-hidden="true" style="position:absolute;width:0;height:0;overflow:hidden"><defs>
<symbol id="icon-facebook" viewBox="0 0 32 32"><path d="M21.329 5.313h2.921V.225C23.746.156 22.013 0 19.994 0c-4.212 0-7.097 2.649-7.097 7.519V12H8.249v5.688h4.648V32h5.699V17.689h4.46l.708-5.688h-5.169V8.082c.001-1.644.444-2.769 2.735-2.769z"/></symbol>
<symbol id="icon-booksy-seeklogo" viewBox="0 0 143 32">
<path d="M129.354 7.381c0.43-0.002 0.861-0.004 1.291 0 1.158 0.010 1.254 0.146 0.833 1.182-0.693 1.704-1.385 3.409-2.084 5.111-1.57 3.83-3.144 7.658-4.716 11.487-0.363 0.884-0.777 1.741-1.326 2.529-1.113 1.596-2.598 2.45-4.603 2.428-1.146-0.013-2.232-0.195-3.288-0.612-0.672-0.265-0.974-0.439-0.559-1.234 0.167-0.32 0.274-0.669 0.425-0.997 0.402-0.873 0.444-0.878 1.334-0.56 0.403 0.144 0.816 0.286 1.236 0.347 1.311 0.189 2.311-0.269 3.015-1.421 0.461-0.756 0.598-1.402 0.182-2.282-2.249-4.753-4.422-9.542-6.62-14.319-0.137-0.298-0.277-0.597-0.39-0.904-0.167-0.456-0.034-0.693 0.449-0.736 0.427-0.038 0.86-0.008 1.291-0.008 1.958 0.006 1.539-0.196 2.289 1.492 1.503 3.382 2.977 6.776 4.473 10.16l0.311 0.632c0 0 0.098 0.203 0.221 0.203s0.303 0.021 0.442-0.227c0.054-0.096 0.114-0.238 0.168-0.377 0.014-0.056 0.029-0.109 0.047-0.157 1.421-3.605 2.812-7.222 4.22-10.832 0.352-0.903 0.365-0.898 1.361-0.903zM105.195 14.077c1.184 0.411 2.413 0.685 3.574 1.17 0.924 0.386 1.784 0.858 2.489 1.578 1.708 1.745 1.396 5.006-0.428 6.677-1.136 1.041-2.497 1.565-4.034 1.665-2.487 0.162-4.787-0.426-6.91-1.708-1.494-0.902-1.522-0.99-0.517-2.343 0.68-0.916 0.592-1.328 1.997-0.377 1.6 1.083 3.388 1.605 5.351 1.437 0.719-0.062 1.36-0.276 1.863-0.803 0.83-0.869 0.715-2.019-0.265-2.718-0.684-0.488-1.49-0.7-2.273-0.954-0.721-0.234-1.459-0.417-2.184-0.638-0.761-0.232-1.482-0.561-2.177-0.946-2.95-1.633-2.791-5.204-1.017-7.094 1.088-1.159 2.451-1.749 4.034-1.852 0.329-0.021 0.661-0.003 0.992-0.003 2.046-0.074 3.903 0.562 5.659 1.539 0.725 0.403 0.766 0.611 0.35 1.337-0.229 0.399-0.481 0.785-0.719 1.179-0.23 0.38-0.549 0.444-0.933 0.263-0.209-0.099-0.413-0.21-0.614-0.323-1.14-0.64-2.376-1.004-3.669-1.109-0.755-0.061-1.519 0.085-2.187 0.497-1.136 0.701-1.168 1.966-0.083 2.736 0.519 0.368 1.107 0.581 1.701 0.787zM89.616 14.528c-0.456 0.478-0.462 0.517-0.037 1.073 2.036 2.672 4.081 5.337 6.117 8.009 0.228 0.299 0.658 0.563 0.449 1.007-0.204 0.434-0.673 0.333-1.064 0.336-0.53 0.005-1.061-0.027-1.589 0.009-0.588 0.040-0.991-0.171-1.348-0.642-1.412-1.864-2.854-3.705-4.29-5.55-1.159-1.49-0.986-1.404-1.893-0.571-0.606 0.598-1.367 1.375-1.65 1.774-0.116 0.209-0.212 0.424-0.284 0.649-0.159 0.618-0.105 1.265-0.105 1.265v0.826c0.032 0.349 0.017 0.706 0 1.062-0.005 0.109-0.011 0.219-0.015 0.328-0.026 0.627-0.214 0.822-0.836 0.846-0.595 0.023-1.192 0.024-1.787-0.001-0.666-0.028-0.776-0.144-0.781-0.852-0.012-1.675-0.005-3.351-0.005-5.026-0-2.135-0-4.271-0-6.406 0-3.581 0-7.161 0-10.742 0-0.263 0.008-0.526 0.003-0.788-0.008-0.409 0.217-0.62 0.599-0.632 0.694-0.022 1.391-0.034 2.085-0.004 0.492 0.021 0.677 0.244 0.721 0.756 0.019 0.229 0.006 0.46 0.006 0.69 0 4.238-0.005 8.476 0.010 12.713v0.807c0.039 0.065 0.102 0.118 0.201 0.152 0.305 0.102 0.526-0.331 0.748-0.56 2.291-2.369 4.58-4.74 6.851-7.128 0.37-0.389 0.748-0.587 1.296-0.556 0.726 0.041 1.456 0.014 2.184 0.011 0.31-0.001 0.615 0.023 0.756 0.348 0.14 0.322-0.152 0.475-0.324 0.651-1.268 1.296-2.548 2.581-3.819 3.874-0.739 0.752-1.472 1.511-2.2 2.274zM58.854 16.144c0.010-4.868 3.644-9.11 9.201-9.114 5.795-0.004 9.324 4.677 9.121 9.147 0.124 4.311-3.116 9.097-9.181 9.115-5.56 0.016-9.15-4.199-9.14-9.147zM73.767 16.245c0.157-2.887-2.265-6.4-6.177-6.093-1.984 0.156-3.454 1.065-4.434 2.726-0.885 1.502-1.115 3.134-0.675 4.842 0.998 3.877 5.051 5.515 8.242 3.799 2.086-1.122 2.954-2.993 3.044-5.275zM37.551 16.158c0.003-4.56 3.455-9.136 9.19-9.131 5.701 0.004 9.231 4.465 9.158 9.135 0.025 4.794-3.545 9.166-9.285 9.129-5.692-0.036-9.066-4.505-9.063-9.132zM50.95 20.327c1.823-2.076 2.051-5.195 0.562-7.521-1.108-1.732-2.681-2.675-5.081-2.657-1.174-0.066-2.416 0.433-3.504 1.4-2.386 2.122-2.637 6.155-0.462 8.661 2.428 2.798 6.413 2.476 8.485 0.117zM21.749 7.788c1.346-0.792 2.841-1.213 4.354-1.151 3.215 0.133 5.752 1.587 7.431 4.368 0.996 1.65 1.343 3.45 1.318 5.371-0.028 2.157-0.645 4.077-2.038 5.722-1.75 2.067-4.012 3.065-6.732 3.294-4.012 0.337-7.269-1.296-10.329-3.571-1.51-1.123-3.032-2.227-4.624-3.235-0.703-0.445-1.45-0.783-2.255-0.996-1.809-0.477-3.55 0.212-4.527 1.794-0.087 0.14-0.179 0.279-0.244 0.429-0.196 0.45-0.53 0.628-1.022 0.612-0.728-0.023-1.457 0.010-2.185-0.010-0.867-0.024-1.081-0.332-0.744-1.118 1.142-2.664 3.154-4.345 5.985-4.992 2.625-0.601 5.054-0.072 7.229 1.515 1.279 0.933 2.52 1.92 3.814 2.832 1.756 1.238 3.561 2.435 5.658 3.013 2.211 0.609 4.386 0.532 6.346-0.872 1.152-0.825 1.912-1.914 2.13-3.313 0.291-1.873 0.093-3.66-1.092-5.245-2.233-2.987-6.591-2.842-8.625 0.318-0.579 0.9-0.942 1.875-0.883 2.973 0.024 0.459 0.031 0.923-0.014 1.379-0.054 0.535-0.364 0.738-0.811 0.506-0.821-0.426-1.584-0.953-2.315-1.518-0.364-0.281-0.298-0.703-0.298-1.095-0-2.267 0-4.534 0.003-6.8 0-2.267-0.004-4.534 0.002-6.801 0.003-1.038 0.067-1.093 1.146-1.104 0.331-0.004 0.662-0.004 0.993 0 1.128 0.012 1.295 0.18 1.299 1.338 0.005 1.511 0.001 3.022 0.001 4.534 0 0.394-0.001 0.788 0 1.183 0.003 1.225 0.012 1.241 1.031 0.642z"></path>
</symbol><symbol id="icon-smartphone" viewBox="0 0 20 32"><path d="M17 0H3C1.346 0 0 1.346 0 3v26c0 1.654 1.346 3 3 3h14c1.654 0 3-1.346 3-3V3c0-1.654-1.346-3-3-3zM3 2h14a1 1 0 0 1 1 1v21H2V3a1 1 0 0 1 1-1zm14 28H3a1 1 0 0 1-1-1v-3h16v3a1 1 0 0 1-1 1z"/><path d="M4.707 27.478c.391.365.391.956 0 1.321s-1.024.365-1.414 0c-.391-.365-.391-.956 0-1.321s1.024-.365 1.414 0z"/></symbol>
<symbol id="icon-instagram" viewBox="0 0 32 32"><path d="M31.969 9.408c-.075-1.7-.35-2.869-.744-3.882a7.806 7.806 0 0 0-1.851-2.838A7.867 7.867 0 0 0 26.542.844C25.523.45 24.36.175 22.66.1 20.947.019 20.403 0 16.059 0s-4.888.019-6.595.094c-1.7.075-2.869.35-3.882.744a7.803 7.803 0 0 0-2.838 1.85A7.867 7.867 0 0 0 .9 5.52C.506 6.539.231 7.702.156 9.402c-.081 1.713-.1 2.257-.1 6.601s.019 4.888.094 6.595c.075 1.7.35 2.869.744 3.882a7.895 7.895 0 0 0 1.85 2.838 7.867 7.867 0 0 0 2.832 1.844c1.019.394 2.182.669 3.882.744 1.706.075 2.25.094 6.595.094s4.888-.019 6.595-.094c1.7-.075 2.869-.35 3.882-.744a8.184 8.184 0 0 0 4.682-4.682c.394-1.019.669-2.182.744-3.882.075-1.707.094-2.251.094-6.595s-.006-4.888-.081-6.595zm-2.882 13.065c-.069 1.563-.331 2.407-.55 2.969a5.31 5.31 0 0 1-3.038 3.038c-.563.219-1.413.481-2.969.55-1.688.075-2.194.094-6.464.094s-4.782-.019-6.464-.094c-1.563-.069-2.407-.331-2.969-.55a4.926 4.926 0 0 1-1.838-1.194 4.974 4.974 0 0 1-1.194-1.838c-.219-.563-.481-1.413-.55-2.969-.075-1.688-.094-2.194-.094-6.464s.019-4.782.094-6.464c.069-1.563.331-2.407.55-2.969a4.868 4.868 0 0 1 1.2-1.838A4.974 4.974 0 0 1 6.639 3.55c.563-.219 1.413-.481 2.969-.55 1.688-.075 2.194-.094 6.464-.094 4.276 0 4.782.019 6.464.094 1.563.069 2.407.331 2.969.55a4.914 4.914 0 0 1 1.838 1.194 4.974 4.974 0 0 1 1.194 1.838c.219.563.481 1.413.55 2.969.075 1.688.094 2.194.094 6.464s-.019 4.77-.094 6.458z"/><path d="M16.059 7.783c-4.538 0-8.22 3.682-8.22 8.22s3.682 8.22 8.22 8.22c4.539 0 8.22-3.682 8.22-8.22s-3.682-8.22-8.22-8.22zm0 13.552a5.333 5.333 0 0 1 0-10.664 5.333 5.333 0 0 1 0 10.664zM26.524 7.458a1.919 1.919 0 1 1-3.838 0 1.919 1.919 0 0 1 3.838 0z"/></symbol>
<symbol id="icon-email" viewBox="0 0 32 32"><path d="M28 4H4a2.996 2.996 0 0 0-2.985 3L1 25c0 1.65 1.35 3 3 3h24c1.65 0 3-1.35 3-3V7c0-1.65-1.35-3-3-3zm-.6 6.375-10.605 6.63c-.48.3-1.11.3-1.59 0L4.6 10.375c-.375-.24-.6-.645-.6-1.08C4 8.29 5.095 7.69 5.95 8.215L16 14.5l10.05-6.285c.855-.525 1.95.075 1.95 1.08 0 .435-.225.84-.6 1.08z"/></symbol>
<symbol id="icon-telephon" viewBox="0 0 32 32"><path d="m27.419 20.852-4.201-.48a3.293 3.293 0 0 0-2.713.943l-3.044 3.044A24.888 24.888 0 0 1 6.56 13.458l3.06-3.06a3.293 3.293 0 0 0 .943-2.713l-.48-4.168A3.31 3.31 0 0 0 6.791.589H3.929C2.06.589.505 2.144.621 4.013c.877 14.126 12.174 25.407 26.284 26.284 1.869.116 3.424-1.439 3.424-3.308v-2.861c.016-1.671-1.241-3.077-2.911-3.275z"/></symbol>
<symbol id="icon-menu" viewBox="0 0 48 32"><path d="M0 5.333V0h48v5.333H0zm0 13.334h48v-5.333H0v5.333zM0 32h48v-5.333H0V32z"/></symbol>
<symbol id="icon-burger-menu" viewBox="0 0 32 32"><path stroke-linejoin="round" stroke-linecap="round" stroke-miterlimit="4" stroke-width="2.5" d="M4 16h24M4 8h24M4 24h16"></path></symbol>

<symbol id="icon-circle-right" viewBox="0 0 32 32">
<path d="M16 0c-8.837 0-16 7.163-16 16s7.163 16 16 16 16-7.163 16-16-7.163-16-16-16zM16 29c-7.18 0-13-5.82-13-13s5.82-13 13-13 13 5.82 13 13-5.82 13-13 13z"></path>
<path d="M11.086 22.086l2.829 2.829 8.914-8.914-8.914-8.914-2.828 2.828 6.086 6.086z"></path>
</symbol>
<symbol id="icon-circle-left" viewBox="0 0 32 32">
<path d="M16 32c8.837 0 16-7.163 16-16s-7.163-16-16-16-16 7.163-16 16 7.163 16 16 16zM16 3c7.18 0 13 5.82 13 13s-5.82 13-13 13-13-5.82-13-13 5.82-13 13-13z"></path>
<path d="M20.914 9.914l-2.829-2.829-8.914 8.914 8.914 8.914 2.828-2.828-6.086-6.086z"></path>
</symbol>

<symbol id="icon-logo_negativ" viewBox="0 0 30 32">
<path fill="#aa895e" style="fill: var(--color1, #aa895e)" d="M12.594 2.321l-1.004 0.522 0.828 2.482 0.176-3.004z"></path>
<path fill="#8c6e4b" style="fill: var(--color2, #8c6e4b)" d="M17.363 2.321l1.004 0.522-0.828 2.482-0.176-3.004z"></path>
<path fill="#aa895e" style="fill: var(--color1, #aa895e)" d="M8.265 6.433l-1.465-0.761 1.207-5.672 0.258 6.433z"></path>
<path fill="#8c6e4b" style="fill: var(--color2, #8c6e4b)" d="M21.837 6.433l1.465-0.761-1.207-5.672-0.257 6.433z"></path>
<path fill="#fff" style="fill: var(--color3, #fff)" d="M0.958 25.043h3.629v0.907h-4.537v-4.537h0.907v3.629z"></path>
<path fill="#fff" style="fill: var(--color3, #fff)" d="M21.535 21.413v0.907h-3.629v3.629h-0.907v-4.537h4.537zM21.535 24.135h-2.496v-0.907h2.496v0.907z"></path>
<path fill="#fff" style="fill: var(--color3, #fff)" d="M28.194 22.32v3.629h-0.907v-3.629h-1.815v-0.907h4.537v0.907h-1.815z"></path>
<path fill="#fff" style="fill: var(--color3, #fff)" d="M9.432 21.413h-0.908v4.537h4.537v-4.537h-3.629zM9.432 25.042v-2.722h2.722v2.722h-2.722z"></path>
<path fill="#e2b574" style="fill: var(--color4, #e2b574)" d="M15.051 16.138l-7.585-5.663-0.666-4.804 8.25 1.333v9.134z"></path>
<path fill="#e2b574" style="fill: var(--color4, #e2b574)" d="M14.978 0.804l-3.115 0.727-0.274 1.311 3.388-0.364v-1.674z"></path>
<path fill="#aa895e" style="fill: var(--color1, #aa895e)" d="M14.978 0.804l3.115 0.727 0.274 1.311-3.389-0.364v-1.674z"></path>
<path fill="#aa895e" style="fill: var(--color1, #aa895e)" d="M15.051 16.138l7.585-5.663 0.666-4.804-8.251 1.333v9.134z"></path>
<path fill="#e2b574" style="fill: var(--color4, #e2b574)" d="M14.978 4.537l-0.716-0.716 0.716-0.333v1.048z"></path>
<path fill="#aa895e" style="fill: var(--color1, #aa895e)" d="M14.978 4.537l0.716-0.716-0.716-0.333v1.048z"></path>
<path fill="#aa895e" style="fill: var(--color1, #aa895e)" d="M0 31.983v-1.455h0.653c0.168 0 0.297 0.034 0.386 0.101s0.135 0.159 0.135 0.276c0 0.079-0.017 0.145-0.053 0.199s-0.083 0.095-0.142 0.125c-0.060 0.029-0.124 0.044-0.193 0.044l0.037-0.062c0.083 0 0.156 0.014 0.22 0.044s0.114 0.072 0.151 0.128c0.037 0.056 0.056 0.126 0.056 0.209 0 0.125-0.047 0.221-0.14 0.29s-0.233 0.103-0.417 0.103h-0.694zM0.208 31.815h0.478c0.115 0 0.203-0.019 0.264-0.058s0.092-0.1 0.092-0.183-0.031-0.146-0.092-0.185c-0.061-0.039-0.149-0.058-0.264-0.058h-0.497v-0.168h0.445c0.105 0 0.187-0.019 0.245-0.058s0.087-0.097 0.087-0.175-0.029-0.136-0.087-0.175c-0.058-0.039-0.14-0.058-0.245-0.058h-0.426v1.118z"></path>
<path fill="#aa895e" style="fill: var(--color1, #aa895e)" d="M2.392 31.983l0.659-1.455h0.206l0.661 1.455h-0.218l-0.588-1.339h0.083l-0.588 1.339h-0.214zM2.673 31.619l0.056-0.166h0.819l0.060 0.166h-0.936z"></path>
<path fill="#aa895e" style="fill: var(--color1, #aa895e)" d="M5.173 31.983v-1.455h0.567c0.128 0 0.236 0.020 0.327 0.060s0.16 0.098 0.208 0.175c0.049 0.076 0.073 0.167 0.073 0.272s-0.024 0.196-0.073 0.271c-0.049 0.075-0.118 0.133-0.208 0.173s-0.199 0.060-0.327 0.060h-0.453l0.093-0.095v0.539h-0.208zM5.381 31.466l-0.093-0.102h0.447c0.133 0 0.234-0.029 0.302-0.086s0.103-0.138 0.103-0.242-0.034-0.184-0.103-0.241c-0.069-0.057-0.17-0.085-0.302-0.085h-0.447l0.093-0.104v0.861zM6.146 31.983l-0.37-0.528h0.223l0.374 0.528h-0.226z"></path>
<path fill="#aa895e" style="fill: var(--color1, #aa895e)" d="M7.724 31.983v-1.455h0.653c0.168 0 0.297 0.034 0.386 0.101s0.135 0.159 0.135 0.276c0 0.079-0.017 0.145-0.053 0.199s-0.083 0.095-0.142 0.125c-0.060 0.029-0.124 0.044-0.193 0.044l0.037-0.062c0.083 0 0.156 0.014 0.22 0.044s0.114 0.072 0.151 0.128c0.037 0.056 0.056 0.126 0.056 0.209 0 0.125-0.047 0.221-0.14 0.29s-0.232 0.103-0.417 0.103h-0.694zM7.931 31.815h0.478c0.115 0 0.203-0.019 0.264-0.058s0.092-0.1 0.092-0.183-0.031-0.146-0.092-0.185c-0.061-0.039-0.149-0.058-0.264-0.058h-0.497v-0.168h0.445c0.105 0 0.187-0.019 0.245-0.058s0.087-0.097 0.087-0.175-0.029-0.136-0.087-0.175c-0.058-0.039-0.14-0.058-0.245-0.058h-0.426v1.118z"></path>
<path fill="#aa895e" style="fill: var(--color1, #aa895e)" d="M10.544 31.802h0.848v0.181h-1.056v-1.455h1.027v0.181h-0.819v1.093zM10.525 31.156h0.748v0.176h-0.748v-0.176z"></path>
<path fill="#aa895e" style="fill: var(--color1, #aa895e)" d="M12.768 31.983v-1.455h0.567c0.128 0 0.236 0.020 0.327 0.060s0.16 0.098 0.208 0.175c0.049 0.076 0.073 0.167 0.073 0.272s-0.024 0.196-0.073 0.271c-0.049 0.075-0.118 0.133-0.208 0.173s-0.199 0.060-0.327 0.060h-0.453l0.094-0.095v0.539h-0.208zM12.976 31.466l-0.094-0.102h0.447c0.133 0 0.234-0.029 0.302-0.086s0.103-0.138 0.103-0.242-0.034-0.184-0.103-0.241c-0.069-0.057-0.17-0.085-0.302-0.085h-0.447l0.094-0.104v0.861zM13.74 31.983l-0.37-0.528h0.223l0.374 0.528h-0.226z"></path>
<path fill="#aa895e" style="fill: var(--color1, #aa895e)" d="M17.34 32c-0.111 0-0.217-0.017-0.318-0.051s-0.181-0.078-0.239-0.132l0.077-0.162c0.055 0.049 0.126 0.088 0.212 0.12s0.175 0.048 0.268 0.048c0.085 0 0.153-0.010 0.206-0.029s0.092-0.046 0.117-0.080c0.025-0.034 0.037-0.072 0.037-0.115 0-0.050-0.016-0.090-0.049-0.12s-0.075-0.055-0.127-0.074-0.109-0.035-0.171-0.049c-0.062-0.014-0.125-0.030-0.188-0.049s-0.12-0.042-0.173-0.072c-0.052-0.029-0.094-0.068-0.126-0.117s-0.048-0.113-0.048-0.19 0.020-0.144 0.059-0.207c0.039-0.063 0.1-0.113 0.183-0.151s0.188-0.057 0.315-0.057c0.085 0 0.168 0.011 0.251 0.033s0.155 0.054 0.216 0.095l-0.069 0.166c-0.062-0.042-0.128-0.072-0.198-0.090s-0.137-0.028-0.201-0.028c-0.082 0-0.149 0.011-0.201 0.031s-0.091 0.049-0.115 0.083c-0.024 0.035-0.036 0.074-0.036 0.117 0 0.051 0.016 0.092 0.049 0.123s0.075 0.055 0.127 0.073c0.052 0.018 0.109 0.034 0.171 0.049s0.125 0.031 0.188 0.049c0.063 0.018 0.12 0.042 0.173 0.070s0.094 0.068 0.126 0.117c0.032 0.049 0.048 0.111 0.048 0.187s-0.020 0.142-0.060 0.204c-0.041 0.063-0.102 0.113-0.186 0.151s-0.189 0.057-0.317 0.057z"></path>
<path fill="#aa895e" style="fill: var(--color1, #aa895e)" d="M19.514 31.983v-1.274h-0.499v-0.181h1.204v0.181h-0.499v1.274h-0.206z"></path>
<path fill="#aa895e" style="fill: var(--color1, #aa895e)" d="M22.061 32c-0.191 0-0.342-0.055-0.451-0.164s-0.164-0.269-0.164-0.48v-0.827h0.208v0.819c0 0.162 0.036 0.28 0.107 0.355s0.172 0.112 0.302 0.112 0.233-0.037 0.305-0.112c0.071-0.075 0.107-0.193 0.107-0.355v-0.819h0.201v0.827c0 0.211-0.054 0.371-0.163 0.48s-0.259 0.164-0.452 0.164z"></path>
<path fill="#aa895e" style="fill: var(--color1, #aa895e)" d="M24.141 31.983v-1.455h0.613c0.155 0 0.292 0.031 0.411 0.092s0.211 0.146 0.277 0.256c0.066 0.11 0.098 0.236 0.098 0.38s-0.033 0.271-0.098 0.38c-0.066 0.11-0.158 0.194-0.277 0.256s-0.256 0.092-0.411 0.092h-0.613zM24.349 31.802h0.393c0.12 0 0.225-0.023 0.313-0.069s0.156-0.11 0.204-0.192c0.049-0.082 0.073-0.178 0.073-0.286s-0.024-0.205-0.073-0.287c-0.049-0.082-0.117-0.145-0.204-0.191s-0.192-0.069-0.313-0.069h-0.393v1.093z"></path>
<path fill="#aa895e" style="fill: var(--color1, #aa895e)" d="M26.897 31.983v-1.455h0.208v1.455h-0.208z"></path>
<path fill="#aa895e" style="fill: var(--color1, #aa895e)" d="M29.238 32c-0.111 0-0.214-0.019-0.309-0.056s-0.177-0.090-0.246-0.157c-0.069-0.067-0.123-0.146-0.162-0.236s-0.058-0.188-0.058-0.295 0.019-0.205 0.058-0.295c0.039-0.090 0.093-0.169 0.162-0.236s0.151-0.12 0.245-0.157 0.198-0.056 0.31-0.056 0.213 0.018 0.308 0.055c0.094 0.037 0.176 0.088 0.245 0.156s0.123 0.146 0.161 0.237c0.038 0.091 0.057 0.189 0.057 0.296s-0.019 0.207-0.057 0.297c-0.038 0.090-0.092 0.169-0.161 0.236s-0.151 0.119-0.245 0.156-0.197 0.055-0.308 0.055zM29.236 31.815c0.082 0 0.157-0.014 0.226-0.042s0.128-0.067 0.179-0.117 0.090-0.11 0.118-0.178c0.029-0.068 0.042-0.142 0.042-0.223s-0.014-0.154-0.042-0.221c-0.029-0.067-0.068-0.127-0.118-0.178s-0.11-0.091-0.179-0.118c-0.069-0.027-0.144-0.042-0.226-0.042s-0.155 0.014-0.223 0.042c-0.069 0.027-0.128 0.067-0.18 0.118s-0.091 0.11-0.12 0.178c-0.029 0.067-0.042 0.141-0.042 0.221s0.014 0.155 0.042 0.223c0.029 0.068 0.068 0.127 0.12 0.178s0.111 0.090 0.18 0.117c0.069 0.028 0.143 0.042 0.223 0.042z"></path>
</symbol>

<symbol id="icon-logo" viewBox="0 0 30 16">
<path fill="#aa895e" style="fill: var(--color1, #aa895e)" d="M12.594 2.321l-1.004 0.522 0.828 2.482 0.176-3.004z"></path>
<path fill="#8c6e4b" style="fill: var(--color2, #8c6e4b)" d="M17.363 2.321l1.004 0.522-0.828 2.482-0.176-3.004z"></path>
<path fill="#aa895e" style="fill: var(--color1, #aa895e)" d="M8.265 6.433l-1.465-0.761 1.207-5.672 0.258 6.433z"></path>
<path fill="#8c6e4b" style="fill: var(--color2, #8c6e4b)" d="M21.837 6.433l1.465-0.761-1.207-5.672-0.257 6.433z"></path>
<path fill="#fff" style="fill: var(--color3, #fff)" d="M0.958 25.043h3.629v0.907h-4.537v-4.537h0.907v3.629z"></path>
<path fill="#fff" style="fill: var(--color3, #fff)" d="M21.535 21.413v0.907h-3.629v3.629h-0.907v-4.537h4.537zM21.535 24.135h-2.496v-0.907h2.496v0.907z"></path>
<path fill="#fff" style="fill: var(--color3, #fff)" d="M28.194 22.32v3.629h-0.907v-3.629h-1.815v-0.907h4.537v0.907h-1.815z"></path>
<path fill="#fff" style="fill: var(--color3, #fff)" d="M9.432 21.413h-0.908v4.537h4.537v-4.537h-3.629zM9.432 25.042v-2.722h2.722v2.722h-2.722z"></path>
<path fill="#e2b574" style="fill: var(--color4, #e2b574)" d="M15.051 16.138l-7.585-5.663-0.666-4.804 8.25 1.333v9.134z"></path>
<path fill="#e2b574" style="fill: var(--color4, #e2b574)" d="M14.978 0.804l-3.115 0.727-0.274 1.311 3.388-0.364v-1.674z"></path>
<path fill="#aa895e" style="fill: var(--color1, #aa895e)" d="M14.978 0.804l3.115 0.727 0.274 1.311-3.389-0.364v-1.674z"></path>
<path fill="#aa895e" style="fill: var(--color1, #aa895e)" d="M15.051 16.138l7.585-5.663 0.666-4.804-8.251 1.333v9.134z"></path>
<path fill="#e2b574" style="fill: var(--color4, #e2b574)" d="M14.978 4.537l-0.716-0.716 0.716-0.333v1.048z"></path>
<path fill="#aa895e" style="fill: var(--color1, #aa895e)" d="M14.978 4.537l0.716-0.716-0.716-0.333v1.048z"></path>
</symbol>

<symbol id="icon-logo_positiv" viewBox="0 0 30 32">
<path fill="#aa895e" style="fill: var(--color1, #aa895e)" d="M12.594 2.321l-1.004 0.522 0.828 2.482 0.176-3.004z"></path>
<path fill="#8c6e4b" style="fill: var(--color2, #8c6e4b)" d="M17.363 2.321l1.004 0.522-0.828 2.482-0.176-3.004z"></path>
<path fill="#aa895e" style="fill: var(--color1, #aa895e)" d="M8.265 6.433l-1.465-0.761 1.207-5.672 0.258 6.433z"></path>
<path fill="#8c6e4b" style="fill: var(--color2, #8c6e4b)" d="M21.837 6.433l1.465-0.761-1.207-5.672-0.257 6.433z"></path>
<path fill="#000" style="fill: var(--color5, #000)" d="M0.958 25.043h3.629v0.907h-4.537v-4.537h0.907v3.629z"></path>
<path fill="#000" style="fill: var(--color5, #000)" d="M21.535 21.413v0.907h-3.629v3.629h-0.907v-4.537h4.537zM21.535 24.135h-2.496v-0.907h2.496v0.907z"></path>
<path fill="#000" style="fill: var(--color5, #000)" d="M28.194 22.32v3.629h-0.907v-3.629h-1.815v-0.907h4.537v0.907h-1.815z"></path>
<path fill="#000" style="fill: var(--color5, #000)" d="M9.432 21.413h-0.908v4.537h4.537v-4.537h-3.629zM9.432 25.042v-2.722h2.722v2.722h-2.722z"></path>
<path fill="#e2b574" style="fill: var(--color4, #e2b574)" d="M15.051 16.138l-7.585-5.663-0.666-4.804 8.25 1.333v9.134z"></path>
<path fill="#e2b574" style="fill: var(--color4, #e2b574)" d="M14.978 0.804l-3.115 0.727-0.274 1.311 3.388-0.364v-1.674z"></path>
<path fill="#aa895e" style="fill: var(--color1, #aa895e)" d="M14.978 0.804l3.115 0.727 0.274 1.311-3.389-0.364v-1.674z"></path>
<path fill="#aa895e" style="fill: var(--color1, #aa895e)" d="M15.051 16.138l7.585-5.663 0.666-4.804-8.251 1.333v9.134z"></path>
<path fill="#e2b574" style="fill: var(--color4, #e2b574)" d="M14.978 4.537l-0.716-0.716 0.716-0.333v1.048z"></path>
<path fill="#aa895e" style="fill: var(--color1, #aa895e)" d="M14.978 4.537l0.716-0.716-0.716-0.333v1.048z"></path>
<path fill="#aa895e" style="fill: var(--color1, #aa895e)" d="M0 31.983v-1.455h0.653c0.168 0 0.297 0.034 0.386 0.101s0.135 0.159 0.135 0.276c0 0.079-0.017 0.145-0.053 0.199s-0.083 0.095-0.142 0.125c-0.060 0.029-0.124 0.044-0.193 0.044l0.037-0.062c0.083 0 0.156 0.014 0.22 0.044s0.114 0.072 0.151 0.128c0.037 0.056 0.056 0.126 0.056 0.209 0 0.125-0.047 0.221-0.14 0.29s-0.233 0.103-0.417 0.103h-0.694zM0.208 31.815h0.478c0.115 0 0.203-0.019 0.264-0.058s0.092-0.1 0.092-0.183-0.031-0.146-0.092-0.185c-0.061-0.039-0.149-0.058-0.264-0.058h-0.497v-0.168h0.445c0.105 0 0.187-0.019 0.245-0.058s0.087-0.097 0.087-0.175-0.029-0.136-0.087-0.175c-0.058-0.039-0.14-0.058-0.245-0.058h-0.426v1.118z"></path>
<path fill="#aa895e" style="fill: var(--color1, #aa895e)" d="M2.392 31.983l0.659-1.455h0.206l0.661 1.455h-0.218l-0.588-1.339h0.083l-0.588 1.339h-0.214zM2.673 31.619l0.056-0.166h0.819l0.060 0.166h-0.936z"></path>
<path fill="#aa895e" style="fill: var(--color1, #aa895e)" d="M5.173 31.983v-1.455h0.567c0.128 0 0.236 0.020 0.327 0.060s0.16 0.098 0.208 0.175c0.049 0.076 0.073 0.167 0.073 0.272s-0.024 0.196-0.073 0.271c-0.049 0.075-0.118 0.133-0.208 0.173s-0.199 0.060-0.327 0.060h-0.453l0.093-0.095v0.539h-0.208zM5.381 31.466l-0.093-0.102h0.447c0.133 0 0.234-0.029 0.302-0.086s0.103-0.138 0.103-0.242-0.034-0.184-0.103-0.241c-0.069-0.057-0.17-0.085-0.302-0.085h-0.447l0.093-0.104v0.861zM6.146 31.983l-0.37-0.528h0.223l0.374 0.528h-0.226z"></path>
<path fill="#aa895e" style="fill: var(--color1, #aa895e)" d="M7.724 31.983v-1.455h0.653c0.168 0 0.297 0.034 0.386 0.101s0.135 0.159 0.135 0.276c0 0.079-0.017 0.145-0.053 0.199s-0.083 0.095-0.142 0.125c-0.060 0.029-0.124 0.044-0.193 0.044l0.037-0.062c0.083 0 0.156 0.014 0.22 0.044s0.114 0.072 0.151 0.128c0.037 0.056 0.056 0.126 0.056 0.209 0 0.125-0.047 0.221-0.14 0.29s-0.232 0.103-0.417 0.103h-0.694zM7.931 31.815h0.478c0.115 0 0.203-0.019 0.264-0.058s0.092-0.1 0.092-0.183-0.031-0.146-0.092-0.185c-0.061-0.039-0.149-0.058-0.264-0.058h-0.497v-0.168h0.445c0.105 0 0.187-0.019 0.245-0.058s0.087-0.097 0.087-0.175-0.029-0.136-0.087-0.175c-0.058-0.039-0.14-0.058-0.245-0.058h-0.426v1.118z"></path>
<path fill="#aa895e" style="fill: var(--color1, #aa895e)" d="M10.544 31.802h0.848v0.181h-1.056v-1.455h1.027v0.181h-0.819v1.093zM10.525 31.156h0.748v0.176h-0.748v-0.176z"></path>
<path fill="#aa895e" style="fill: var(--color1, #aa895e)" d="M12.768 31.983v-1.455h0.567c0.128 0 0.236 0.020 0.327 0.060s0.16 0.098 0.208 0.175c0.049 0.076 0.073 0.167 0.073 0.272s-0.024 0.196-0.073 0.271c-0.049 0.075-0.118 0.133-0.208 0.173s-0.199 0.060-0.327 0.060h-0.453l0.094-0.095v0.539h-0.208zM12.976 31.466l-0.094-0.102h0.447c0.133 0 0.234-0.029 0.302-0.086s0.103-0.138 0.103-0.242-0.034-0.184-0.103-0.241c-0.069-0.057-0.17-0.085-0.302-0.085h-0.447l0.094-0.104v0.861zM13.74 31.983l-0.37-0.528h0.223l0.374 0.528h-0.226z"></path>
<path fill="#aa895e" style="fill: var(--color1, #aa895e)" d="M17.34 32c-0.111 0-0.217-0.017-0.318-0.051s-0.181-0.078-0.239-0.132l0.077-0.162c0.055 0.049 0.126 0.088 0.212 0.12s0.175 0.048 0.268 0.048c0.085 0 0.153-0.010 0.206-0.029s0.092-0.046 0.117-0.080c0.025-0.034 0.037-0.072 0.037-0.115 0-0.050-0.016-0.090-0.049-0.12s-0.075-0.055-0.127-0.074-0.109-0.035-0.171-0.049c-0.062-0.014-0.125-0.030-0.188-0.049s-0.12-0.042-0.173-0.072c-0.052-0.029-0.094-0.068-0.126-0.117s-0.048-0.113-0.048-0.19 0.020-0.144 0.059-0.207c0.039-0.063 0.1-0.113 0.183-0.151s0.188-0.057 0.315-0.057c0.085 0 0.168 0.011 0.251 0.033s0.155 0.054 0.216 0.095l-0.069 0.166c-0.062-0.042-0.128-0.072-0.198-0.090s-0.137-0.028-0.201-0.028c-0.082 0-0.149 0.011-0.201 0.031s-0.091 0.049-0.115 0.083c-0.024 0.035-0.036 0.074-0.036 0.117 0 0.051 0.016 0.092 0.049 0.123s0.075 0.055 0.127 0.073c0.052 0.018 0.109 0.034 0.171 0.049s0.125 0.031 0.188 0.049c0.063 0.018 0.12 0.042 0.173 0.070s0.094 0.068 0.126 0.117c0.032 0.049 0.048 0.111 0.048 0.187s-0.020 0.142-0.060 0.204c-0.041 0.063-0.102 0.113-0.186 0.151s-0.189 0.057-0.317 0.057z"></path>
<path fill="#aa895e" style="fill: var(--color1, #aa895e)" d="M19.514 31.983v-1.274h-0.499v-0.181h1.204v0.181h-0.499v1.274h-0.206z"></path>
<path fill="#aa895e" style="fill: var(--color1, #aa895e)" d="M22.061 32c-0.191 0-0.342-0.055-0.451-0.164s-0.164-0.269-0.164-0.48v-0.827h0.208v0.819c0 0.162 0.036 0.28 0.107 0.355s0.172 0.112 0.302 0.112 0.233-0.037 0.305-0.112c0.071-0.075 0.107-0.193 0.107-0.355v-0.819h0.201v0.827c0 0.211-0.054 0.371-0.163 0.48s-0.259 0.164-0.452 0.164z"></path>
<path fill="#aa895e" style="fill: var(--color1, #aa895e)" d="M24.141 31.983v-1.455h0.613c0.155 0 0.292 0.031 0.411 0.092s0.211 0.146 0.277 0.256c0.066 0.11 0.098 0.236 0.098 0.38s-0.033 0.271-0.098 0.38c-0.066 0.11-0.158 0.194-0.277 0.256s-0.256 0.092-0.411 0.092h-0.613zM24.349 31.802h0.393c0.12 0 0.225-0.023 0.313-0.069s0.156-0.11 0.204-0.192c0.049-0.082 0.073-0.178 0.073-0.286s-0.024-0.205-0.073-0.287c-0.049-0.082-0.117-0.145-0.204-0.191s-0.192-0.069-0.313-0.069h-0.393v1.093z"></path>
<path fill="#aa895e" style="fill: var(--color1, #aa895e)" d="M26.897 31.983v-1.455h0.208v1.455h-0.208z"></path>
<path fill="#aa895e" style="fill: var(--color1, #aa895e)" d="M29.238 32c-0.111 0-0.214-0.019-0.309-0.056s-0.177-0.090-0.246-0.157c-0.069-0.067-0.123-0.146-0.162-0.236s-0.058-0.188-0.058-0.295 0.019-0.205 0.058-0.295c0.039-0.090 0.093-0.169 0.162-0.236s0.151-0.12 0.245-0.157 0.198-0.056 0.31-0.056 0.213 0.018 0.308 0.055c0.094 0.037 0.176 0.088 0.245 0.156s0.123 0.146 0.161 0.237c0.038 0.091 0.057 0.189 0.057 0.296s-0.019 0.207-0.057 0.297c-0.038 0.090-0.092 0.169-0.161 0.236s-0.151 0.119-0.245 0.156-0.197 0.055-0.308 0.055zM29.236 31.815c0.082 0 0.157-0.014 0.226-0.042s0.128-0.067 0.179-0.117 0.090-0.11 0.118-0.178c0.029-0.068 0.042-0.142 0.042-0.223s-0.014-0.154-0.042-0.221c-0.029-0.067-0.068-0.127-0.118-0.178s-0.11-0.091-0.179-0.118c-0.069-0.027-0.144-0.042-0.226-0.042s-0.155 0.014-0.223 0.042c-0.069 0.027-0.128 0.067-0.18 0.118s-0.091 0.11-0.12 0.178c-0.029 0.067-0.042 0.141-0.042 0.221s0.014 0.155 0.042 0.223c0.029 0.068 0.068 0.127 0.12 0.178s0.111 0.090 0.18 0.117c0.069 0.028 0.143 0.042 0.223 0.042z"></path>
</symbol>
</defs></svg>