<svg aria-hidden="true" style="position: absolute; width: 0; height: 0; overflow: hidden;" version="1.1" xmlns="http://www.w3.org/2000/svg" xmlns:xlink="http://www.w3.org/1999/xlink">
<defs>
<symbol id="icon-logo_negativ" viewBox="0 0 30 32">
<path fill="#aa895e" style="fill: var(--color1, #aa895e)" d="M12.594 2.321l-1.004 0.522 0.828 2.482 0.176-3.004z"></path>
<path fill="#8c6e4b" style="fill: var(--color2, #8c6e4b)" d="M17.363 2.321l1.004 0.522-0.828 2.482-0.176-3.004z"></path>
<path fill="#aa895e" style="fill: var(--color1, #aa895e)" d="M8.265 6.433l-1.465-0.761 1.207-5.672 0.258 6.433z"></path>
<path fill="#8c6e4b" style="fill: var(--color2, #8c6e4b)" d="M21.837 6.433l1.465-0.761-1.207-5.672-0.257 6.433z"></path>
<path fill="#fff" style="fill: var(--color3, #fff)" d="M0.958 25.043h3.629v0.907h-4.537v-4.537h0.907v3.629z"></path>
<path fill="#fff" style="fill: var(--color3, #fff)" d="M21.535 21.413v0.907h-3.629v3.629h-0.907v-4.537h4.537zM21.535 24.135h-2.496v-0.907h2.496v0.907z"></path>
<path fill="#fff" style="fill: var(--color3, #fff)" d="M28.194 22.32v3.629h-0.907v-3.629h-1.815v-0.907h4.537v0.907h-1.815z"></path>
<path fill="#fff" style="fill: var(--color3, #fff)" d="M9.432 21.413h-0.908v4.537h4.537v-4.537h-3.629zM9.432 25.042v-2.722h2.722v2.722h-2.722z"></path>
<path fill="#e2b574" style="fill: var(--color4, #e2b574)" d="M15.051 16.138l-7.585-5.663-0.666-4.804 8.25 1.333v9.134z"></path>
<path fill="#e2b574" style="fill: var(--color4, #e2b574)" d="M14.978 0.804l-3.115 0.727-0.274 1.311 3.388-0.364v-1.674z"></path>
<path fill="#aa895e" style="fill: var(--color1, #aa895e)" d="M14.978 0.804l3.115 0.727 0.274 1.311-3.389-0.364v-1.674z"></path>
<path fill="#aa895e" style="fill: var(--color1, #aa895e)" d="M15.051 16.138l7.585-5.663 0.666-4.804-8.251 1.333v9.134z"></path>
<path fill="#e2b574" style="fill: var(--color4, #e2b574)" d="M14.978 4.537l-0.716-0.716 0.716-0.333v1.048z"></path>
<path fill="#aa895e" style="fill: var(--color1, #aa895e)" d="M14.978 4.537l0.716-0.716-0.716-0.333v1.048z"></path>
<path fill="#aa895e" style="fill: var(--color1, #aa895e)" d="M0 31.983v-1.455h0.653c0.168 0 0.297 0.034 0.386 0.101s0.135 0.159 0.135 0.276c0 0.079-0.017 0.145-0.053 0.199s-0.083 0.095-0.142 0.125c-0.060 0.029-0.124 0.044-0.193 0.044l0.037-0.062c0.083 0 0.156 0.014 0.22 0.044s0.114 0.072 0.151 0.128c0.037 0.056 0.056 0.126 0.056 0.209 0 0.125-0.047 0.221-0.14 0.29s-0.233 0.103-0.417 0.103h-0.694zM0.208 31.815h0.478c0.115 0 0.203-0.019 0.264-0.058s0.092-0.1 0.092-0.183-0.031-0.146-0.092-0.185c-0.061-0.039-0.149-0.058-0.264-0.058h-0.497v-0.168h0.445c0.105 0 0.187-0.019 0.245-0.058s0.087-0.097 0.087-0.175-0.029-0.136-0.087-0.175c-0.058-0.039-0.14-0.058-0.245-0.058h-0.426v1.118z"></path>
<path fill="#aa895e" style="fill: var(--color1, #aa895e)" d="M2.392 31.983l0.659-1.455h0.206l0.661 1.455h-0.218l-0.588-1.339h0.083l-0.588 1.339h-0.214zM2.673 31.619l0.056-0.166h0.819l0.060 0.166h-0.936z"></path>
<path fill="#aa895e" style="fill: var(--color1, #aa895e)" d="M5.173 31.983v-1.455h0.567c0.128 0 0.236 0.020 0.327 0.060s0.16 0.098 0.208 0.175c0.049 0.076 0.073 0.167 0.073 0.272s-0.024 0.196-0.073 0.271c-0.049 0.075-0.118 0.133-0.208 0.173s-0.199 0.060-0.327 0.060h-0.453l0.093-0.095v0.539h-0.208zM5.381 31.466l-0.093-0.102h0.447c0.133 0 0.234-0.029 0.302-0.086s0.103-0.138 0.103-0.242-0.034-0.184-0.103-0.241c-0.069-0.057-0.17-0.085-0.302-0.085h-0.447l0.093-0.104v0.861zM6.146 31.983l-0.37-0.528h0.223l0.374 0.528h-0.226z"></path>
<path fill="#aa895e" style="fill: var(--color1, #aa895e)" d="M7.724 31.983v-1.455h0.653c0.168 0 0.297 0.034 0.386 0.101s0.135 0.159 0.135 0.276c0 0.079-0.017 0.145-0.053 0.199s-0.083 0.095-0.142 0.125c-0.060 0.029-0.124 0.044-0.193 0.044l0.037-0.062c0.083 0 0.156 0.014 0.22 0.044s0.114 0.072 0.151 0.128c0.037 0.056 0.056 0.126 0.056 0.209 0 0.125-0.047 0.221-0.14 0.29s-0.232 0.103-0.417 0.103h-0.694zM7.931 31.815h0.478c0.115 0 0.203-0.019 0.264-0.058s0.092-0.1 0.092-0.183-0.031-0.146-0.092-0.185c-0.061-0.039-0.149-0.058-0.264-0.058h-0.497v-0.168h0.445c0.105 0 0.187-0.019 0.245-0.058s0.087-0.097 0.087-0.175-0.029-0.136-0.087-0.175c-0.058-0.039-0.14-0.058-0.245-0.058h-0.426v1.118z"></path>
<path fill="#aa895e" style="fill: var(--color1, #aa895e)" d="M10.544 31.802h0.848v0.181h-1.056v-1.455h1.027v0.181h-0.819v1.093zM10.525 31.156h0.748v0.176h-0.748v-0.176z"></path>
<path fill="#aa895e" style="fill: var(--color1, #aa895e)" d="M12.768 31.983v-1.455h0.567c0.128 0 0.236 0.020 0.327 0.060s0.16 0.098 0.208 0.175c0.049 0.076 0.073 0.167 0.073 0.272s-0.024 0.196-0.073 0.271c-0.049 0.075-0.118 0.133-0.208 0.173s-0.199 0.060-0.327 0.060h-0.453l0.094-0.095v0.539h-0.208zM12.976 31.466l-0.094-0.102h0.447c0.133 0 0.234-0.029 0.302-0.086s0.103-0.138 0.103-0.242-0.034-0.184-0.103-0.241c-0.069-0.057-0.17-0.085-0.302-0.085h-0.447l0.094-0.104v0.861zM13.74 31.983l-0.37-0.528h0.223l0.374 0.528h-0.226z"></path>
<path fill="#aa895e" style="fill: var(--color1, #aa895e)" d="M17.34 32c-0.111 0-0.217-0.017-0.318-0.051s-0.181-0.078-0.239-0.132l0.077-0.162c0.055 0.049 0.126 0.088 0.212 0.12s0.175 0.048 0.268 0.048c0.085 0 0.153-0.010 0.206-0.029s0.092-0.046 0.117-0.080c0.025-0.034 0.037-0.072 0.037-0.115 0-0.050-0.016-0.090-0.049-0.12s-0.075-0.055-0.127-0.074-0.109-0.035-0.171-0.049c-0.062-0.014-0.125-0.030-0.188-0.049s-0.12-0.042-0.173-0.072c-0.052-0.029-0.094-0.068-0.126-0.117s-0.048-0.113-0.048-0.19 0.020-0.144 0.059-0.207c0.039-0.063 0.1-0.113 0.183-0.151s0.188-0.057 0.315-0.057c0.085 0 0.168 0.011 0.251 0.033s0.155 0.054 0.216 0.095l-0.069 0.166c-0.062-0.042-0.128-0.072-0.198-0.090s-0.137-0.028-0.201-0.028c-0.082 0-0.149 0.011-0.201 0.031s-0.091 0.049-0.115 0.083c-0.024 0.035-0.036 0.074-0.036 0.117 0 0.051 0.016 0.092 0.049 0.123s0.075 0.055 0.127 0.073c0.052 0.018 0.109 0.034 0.171 0.049s0.125 0.031 0.188 0.049c0.063 0.018 0.12 0.042 0.173 0.070s0.094 0.068 0.126 0.117c0.032 0.049 0.048 0.111 0.048 0.187s-0.020 0.142-0.060 0.204c-0.041 0.063-0.102 0.113-0.186 0.151s-0.189 0.057-0.317 0.057z"></path>
<path fill="#aa895e" style="fill: var(--color1, #aa895e)" d="M19.514 31.983v-1.274h-0.499v-0.181h1.204v0.181h-0.499v1.274h-0.206z"></path>
<path fill="#aa895e" style="fill: var(--color1, #aa895e)" d="M22.061 32c-0.191 0-0.342-0.055-0.451-0.164s-0.164-0.269-0.164-0.48v-0.827h0.208v0.819c0 0.162 0.036 0.28 0.107 0.355s0.172 0.112 0.302 0.112 0.233-0.037 0.305-0.112c0.071-0.075 0.107-0.193 0.107-0.355v-0.819h0.201v0.827c0 0.211-0.054 0.371-0.163 0.48s-0.259 0.164-0.452 0.164z"></path>
<path fill="#aa895e" style="fill: var(--color1, #aa895e)" d="M24.141 31.983v-1.455h0.613c0.155 0 0.292 0.031 0.411 0.092s0.211 0.146 0.277 0.256c0.066 0.11 0.098 0.236 0.098 0.38s-0.033 0.271-0.098 0.38c-0.066 0.11-0.158 0.194-0.277 0.256s-0.256 0.092-0.411 0.092h-0.613zM24.349 31.802h0.393c0.12 0 0.225-0.023 0.313-0.069s0.156-0.11 0.204-0.192c0.049-0.082 0.073-0.178 0.073-0.286s-0.024-0.205-0.073-0.287c-0.049-0.082-0.117-0.145-0.204-0.191s-0.192-0.069-0.313-0.069h-0.393v1.093z"></path>
<path fill="#aa895e" style="fill: var(--color1, #aa895e)" d="M26.897 31.983v-1.455h0.208v1.455h-0.208z"></path>
<path fill="#aa895e" style="fill: var(--color1, #aa895e)" d="M29.238 32c-0.111 0-0.214-0.019-0.309-0.056s-0.177-0.090-0.246-0.157c-0.069-0.067-0.123-0.146-0.162-0.236s-0.058-0.188-0.058-0.295 0.019-0.205 0.058-0.295c0.039-0.090 0.093-0.169 0.162-0.236s0.151-0.12 0.245-0.157 0.198-0.056 0.31-0.056 0.213 0.018 0.308 0.055c0.094 0.037 0.176 0.088 0.245 0.156s0.123 0.146 0.161 0.237c0.038 0.091 0.057 0.189 0.057 0.296s-0.019 0.207-0.057 0.297c-0.038 0.090-0.092 0.169-0.161 0.236s-0.151 0.119-0.245 0.156-0.197 0.055-0.308 0.055zM29.236 31.815c0.082 0 0.157-0.014 0.226-0.042s0.128-0.067 0.179-0.117 0.090-0.11 0.118-0.178c0.029-0.068 0.042-0.142 0.042-0.223s-0.014-0.154-0.042-0.221c-0.029-0.067-0.068-0.127-0.118-0.178s-0.11-0.091-0.179-0.118c-0.069-0.027-0.144-0.042-0.226-0.042s-0.155 0.014-0.223 0.042c-0.069 0.027-0.128 0.067-0.18 0.118s-0.091 0.11-0.12 0.178c-0.029 0.067-0.042 0.141-0.042 0.221s0.014 0.155 0.042 0.223c0.029 0.068 0.068 0.127 0.12 0.178s0.111 0.090 0.18 0.117c0.069 0.028 0.143 0.042 0.223 0.042z"></path>
</symbol></defs>
</svg>